<svg width="174" height="69" fill="none" xmlns="http://www.w3.org/2000/svg"><path d="M52.52 54c-.403 0-.733-.128-.99-.385a1.388 1.388 0 0 1-.33-.935v-3.135c0-.33.073-.642.22-.935.183-.33.367-.605.55-.825L66.05 31.12H52.96c-.367 0-.678-.11-.935-.33-.257-.257-.385-.587-.385-.99v-3.08c0-.367.128-.678.385-.935s.568-.385.935-.385h20.845c.403 0 .715.128.935.385.257.257.385.568.385.935v3.355c0 .33-.073.623-.22.88-.147.257-.33.532-.55.825l-13.75 16.5H74.96c.367 0 .678.128.935.385.257.22.385.532.385.935v3.08c0 .367-.128.678-.385.935a1.273 1.273 0 0 1-.935.385H52.52zm37.634.55c-1.907 0-3.63-.367-5.17-1.1-1.54-.77-2.769-1.778-3.685-3.025a7.415 7.415 0 0 1-1.32-4.29c0-2.567 1.026-4.602 3.08-6.105 2.09-1.54 4.84-2.567 8.25-3.08l7.535-1.1v-1.155c0-1.54-.385-2.732-1.155-3.575s-2.09-1.265-3.96-1.265c-1.32 0-2.402.275-3.245.825a4.788 4.788 0 0 0-1.815 2.09c-.294.477-.715.715-1.265.715h-4.345c-.404 0-.715-.11-.935-.33-.184-.22-.275-.513-.275-.88.036-.587.275-1.302.715-2.145.44-.843 1.136-1.65 2.09-2.42.953-.807 2.181-1.485 3.685-2.035 1.503-.55 3.318-.825 5.445-.825 2.31 0 4.253.293 5.83.88 1.613.55 2.896 1.302 3.85 2.255a8.653 8.653 0 0 1 2.09 3.355c.44 1.283.66 2.64.66 4.07v17.27c0 .367-.129.678-.385.935a1.274 1.274 0 0 1-.935.385h-4.455c-.404 0-.734-.128-.99-.385a1.388 1.388 0 0 1-.33-.935v-2.145c-.477.697-1.119 1.357-1.925 1.98-.807.587-1.797 1.082-2.97 1.485-1.137.367-2.494.55-4.07.55zm1.87-5.225c1.283 0 2.438-.275 3.465-.825 1.063-.55 1.888-1.393 2.475-2.53.623-1.173.935-2.64.935-4.4v-1.155l-5.5.88c-2.164.33-3.777.862-4.84 1.595-1.064.733-1.595 1.632-1.595 2.695 0 .807.238 1.503.715 2.09.513.55 1.155.972 1.925 1.265a7.59 7.59 0 0 0 2.42.385zM114.59 54a1.27 1.27 0 0 1-.935-.385 1.272 1.272 0 0 1-.385-.935V26.775c0-.403.128-.733.385-.99a1.27 1.27 0 0 1 .935-.385h4.455c.366 0 .678.128.935.385.293.257.44.587.44.99v2.255a8.285 8.285 0 0 1 3.245-2.695c1.356-.623 2.915-.935 4.675-.935h2.255c.403 0 .715.128.935.385.256.257.385.568.385.935v3.96c0 .367-.129.678-.385.935-.22.257-.532.385-.935.385h-4.29c-1.76 0-3.135.495-4.125 1.485-.954.99-1.43 2.347-1.43 4.07V52.68c0 .367-.129.678-.385.935-.257.257-.587.385-.99.385h-4.785zm34.539 0c-2.2 0-4.051-.385-5.555-1.155-1.503-.77-2.621-1.907-3.355-3.41-.733-1.54-1.1-3.447-1.1-5.72V31.23h-4.345c-.366 0-.678-.128-.935-.385a1.276 1.276 0 0 1-.385-.935v-3.19c0-.367.129-.678.385-.935.257-.257.569-.385.935-.385h4.345v-9.13c0-.367.11-.678.33-.935.257-.257.587-.385.99-.385h4.455c.367 0 .679.128.935.385.257.257.385.568.385.935v9.13h6.875c.367 0 .679.128.935.385.257.257.385.568.385.935v3.19c0 .367-.128.678-.385.935a1.271 1.271 0 0 1-.935.385h-6.875v11.935c0 1.503.257 2.677.77 3.52.55.843 1.485 1.265 2.805 1.265h3.795c.367 0 .679.128.935.385.257.257.385.568.385.935v3.41c0 .367-.128.678-.385.935a1.271 1.271 0 0 1-.935.385h-4.455zm16.644.371c-1.067 0-1.985-.378-2.753-1.133-.769-.768-1.153-1.692-1.153-2.773 0-1.068.384-1.98 1.153-2.735.768-.768 1.686-1.152 2.753-1.152 1.068 0 1.986.384 2.754 1.152.769.756 1.153 1.667 1.153 2.735 0 .716-.183 1.373-.547 1.972a4.05 4.05 0 0 1-1.406 1.407 3.724 3.724 0 0 1-1.954.527zM25 56c-4.163 0-7.917-.958-11.263-2.875-3.345-1.958-5.971-4.646-7.878-8.063C3.953 41.605 3 37.75 3 33.5c0-4.25.953-8.083 2.86-11.5 1.906-3.458 4.532-6.146 7.877-8.063C17.083 11.98 20.837 11 25 11s7.917.98 11.263 2.938c3.345 1.916 5.971 4.583 7.878 8C46.047 25.354 47 29.207 47 33.5s-.953 8.146-2.86 11.563c-1.906 3.416-4.532 6.104-7.877 8.062C32.917 55.042 29.163 56 25 56zm0-7.125c2.723 0 5.174-.646 7.353-1.938 2.178-1.333 3.89-3.166 5.135-5.5 1.245-2.374 1.867-5.02 1.867-7.937 0-2.917-.622-5.542-1.867-7.875-1.245-2.375-2.957-4.208-5.135-5.5-2.179-1.333-4.63-2-7.353-2s-5.174.667-7.353 2c-2.178 1.292-3.89 3.125-5.135 5.5-1.245 2.333-1.867 4.958-1.867 7.875s.622 5.563 1.867 7.938c1.245 2.333 2.957 4.166 5.135 5.5 2.179 1.291 4.63 1.937 7.353 1.937z" fill="#333"/><path d="M25.5 4v60" stroke="#333" stroke-width="5"/></svg>